<?xml version="1.0" standalone="no"?>
<!DOCTYPE svg PUBLIC "-//W3C//DTD SVG 20010904//EN"
 "http://www.w3.org/TR/2001/REC-SVG-20010904/DTD/svg10.dtd">
<svg version="1.0" xmlns="http://www.w3.org/2000/svg"
 width="668.000000pt" height="668.000000pt" viewBox="0 0 668.000000 668.000000"
 preserveAspectRatio="xMidYMid meet">

<g transform="translate(0.000000,668.000000) scale(0.100000,-0.100000)"
fill="#000000" stroke="none">
<path d="M2848 6485 c-4 -4 -42 -11 -85 -15 -81 -9 -146 -21 -223 -40 -25 -6
-61 -15 -80 -19 -47 -11 -324 -104 -330 -111 -5 -5 -52 -25 -107 -44 -18 -6
-33 -14 -33 -18 0 -5 -9 -8 -20 -8 -11 0 -20 -4 -20 -10 0 -5 -9 -10 -20 -10
-11 0 -20 -4 -20 -10 0 -5 -9 -10 -20 -10 -11 0 -20 -4 -20 -10 0 -5 -9 -10
-20 -10 -11 0 -20 -4 -20 -10 0 -5 -9 -10 -20 -10 -11 0 -20 -4 -20 -10 0 -5
-9 -10 -20 -10 -11 0 -20 -4 -20 -9 0 -5 -13 -14 -30 -21 -16 -7 -30 -16 -30
-21 0 -5 -9 -9 -20 -9 -11 0 -20 -4 -20 -9 0 -5 -13 -14 -30 -21 -16 -7 -30
-16 -30 -21 0 -5 -8 -9 -18 -9 -10 0 -24 -9 -32 -20 -8 -11 -20 -20 -28 -20
-7 0 -24 -11 -38 -25 -14 -14 -29 -25 -33 -25 -4 0 -17 -8 -29 -17 -11 -10
-30 -25 -42 -33 -12 -8 -35 -26 -50 -40 -15 -14 -38 -32 -50 -40 -13 -8 -49
-40 -81 -70 -32 -30 -81 -75 -108 -100 -28 -25 -50 -49 -50 -53 -1 -4 -28 -35
-61 -67 -33 -32 -60 -63 -60 -67 0 -5 -9 -15 -20 -23 -11 -8 -20 -20 -20 -27
0 -7 -4 -13 -10 -13 -5 0 -10 -6 -10 -13 0 -7 -9 -19 -20 -27 -11 -8 -20 -19
-20 -25 0 -6 -9 -17 -20 -25 -11 -8 -20 -20 -20 -27 0 -7 -4 -13 -10 -13 -5 0
-10 -7 -10 -15 0 -8 -4 -15 -10 -15 -5 0 -10 -7 -10 -15 0 -8 -4 -15 -10 -15
-5 0 -10 -7 -10 -15 0 -8 -4 -15 -10 -15 -5 0 -10 -7 -10 -15 0 -8 -4 -15 -10
-15 -5 0 -10 -7 -10 -15 0 -8 -4 -15 -10 -15 -5 0 -10 -7 -10 -15 0 -8 -4 -15
-10 -15 -5 0 -10 -7 -10 -15 0 -8 -4 -15 -10 -15 -5 0 -10 -9 -10 -20 0 -11
-4 -20 -10 -20 -5 0 -10 -7 -10 -15 0 -8 -4 -15 -10 -15 -5 0 -10 -9 -10 -20
0 -11 -4 -20 -10 -20 -5 0 -10 -9 -10 -20 0 -11 -4 -20 -10 -20 -5 0 -10 -9
-10 -20 0 -11 -4 -20 -10 -20 -5 0 -10 -9 -10 -20 0 -11 -4 -20 -10 -20 -5 0
-10 -9 -10 -20 0 -11 -4 -20 -10 -20 -5 0 -10 -9 -10 -20 0 -11 -4 -20 -10
-20 -5 0 -10 -9 -10 -20 0 -11 -4 -20 -10 -20 -5 0 -10 -13 -10 -30 0 -16 -4
-30 -10 -30 -5 0 -10 -9 -10 -20 0 -11 -4 -20 -10 -20 -5 0 -10 -13 -10 -30 0
-16 -4 -30 -10 -30 -5 0 -10 -11 -10 -25 0 -14 -4 -25 -10 -25 -5 0 -10 -11
-10 -25 0 -14 -4 -25 -10 -25 -5 0 -10 -16 -10 -35 0 -19 -4 -35 -10 -35 -5 0
-10 -16 -10 -35 0 -19 -4 -35 -10 -35 -5 0 -10 -16 -10 -35 0 -19 -4 -35 -10
-35 -5 0 -10 -18 -10 -40 0 -22 -4 -40 -10 -40 -5 0 -10 -20 -10 -45 0 -25 -4
-45 -10 -45 -5 0 -10 -25 -10 -55 0 -30 -4 -55 -10 -55 -6 0 -10 -28 -10 -65
0 -37 -4 -65 -10 -65 -6 0 -10 -40 -10 -100 0 -60 -4 -100 -10 -100 -6 0 -10
-83 -10 -230 0 -147 4 -230 10 -230 6 0 10 -40 10 -100 0 -60 4 -100 10 -100
6 0 10 -27 10 -60 0 -33 4 -60 10 -60 6 0 10 -27 10 -60 0 -33 4 -60 10 -60 6
0 10 -18 10 -40 0 -22 5 -40 10 -40 6 0 10 -18 10 -40 0 -22 5 -40 10 -40 6 0
10 -18 10 -40 0 -22 5 -40 10 -40 6 0 10 -13 10 -30 0 -16 5 -30 10 -30 6 0
10 -13 10 -30 0 -16 5 -30 10 -30 6 0 10 -13 10 -30 0 -16 5 -30 10 -30 6 0
10 -13 10 -30 0 -16 5 -30 10 -30 6 0 10 -11 10 -25 0 -14 5 -25 10 -25 6 0
10 -11 10 -25 0 -14 5 -25 10 -25 6 0 10 -9 10 -20 0 -11 5 -20 10 -20 6 0 10
-11 10 -25 0 -14 5 -25 10 -25 6 0 10 -9 10 -20 0 -11 5 -20 10 -20 6 0 10
-11 10 -25 0 -14 5 -25 10 -25 6 0 10 -9 10 -20 0 -11 5 -20 10 -20 6 0 10 -7
10 -15 0 -8 5 -15 10 -15 6 0 10 -9 10 -20 0 -11 5 -20 10 -20 6 0 10 -7 10
-15 0 -8 5 -15 10 -15 6 0 10 -9 10 -20 0 -11 5 -20 10 -20 6 0 10 -9 10 -20
0 -11 5 -20 10 -20 6 0 10 -7 10 -15 0 -8 5 -15 10 -15 6 0 10 -7 10 -15 0 -8
5 -15 10 -15 6 0 10 -7 10 -15 0 -8 5 -15 10 -15 6 0 10 -7 10 -15 0 -8 5 -15
10 -15 6 0 10 -8 10 -18 0 -10 9 -24 20 -32 11 -8 20 -20 20 -27 0 -7 5 -13
10 -13 6 0 10 -7 10 -15 0 -8 5 -15 10 -15 6 0 10 -7 10 -15 0 -8 5 -15 10
-15 6 0 10 -6 10 -13 0 -7 9 -19 20 -27 11 -8 20 -19 20 -25 0 -6 9 -17 20
-25 11 -8 20 -18 20 -23 0 -5 14 -22 30 -37 17 -15 30 -32 30 -37 0 -5 9 -15
20 -23 11 -8 20 -18 20 -22 0 -9 233 -241 297 -296 21 -17 52 -44 69 -60 18
-15 42 -34 54 -42 12 -8 30 -22 40 -30 10 -8 28 -22 40 -30 12 -8 31 -23 42
-32 11 -10 29 -20 39 -23 11 -4 19 -10 19 -14 0 -5 14 -14 30 -21 17 -7 30
-16 30 -20 0 -4 14 -13 31 -20 17 -7 36 -19 43 -26 15 -14 388 -203 426 -215
14 -4 50 -17 80 -29 112 -43 232 -79 365 -110 50 -12 106 -25 125 -30 19 -5
69 -14 110 -20 41 -6 102 -15 135 -20 151 -23 404 -32 577 -20 234 15 449 47
621 90 20 6 54 14 75 19 48 11 265 84 317 106 22 9 68 30 103 46 34 16 69 29
77 29 8 0 15 5 15 10 0 6 9 10 20 10 11 0 20 5 20 10 0 6 9 10 20 10 11 0 20
5 20 10 0 6 9 10 20 10 11 0 20 4 20 8 0 5 23 19 50 32 28 13 50 27 50 32 0 4
7 8 15 8 9 0 21 5 28 10 47 39 62 50 78 55 11 4 19 10 19 15 0 5 8 11 19 15
10 3 28 13 39 23 11 9 30 24 42 32 12 8 35 26 50 40 15 14 38 32 50 40 12 8
40 31 61 50 21 19 57 51 79 70 62 53 200 188 200 195 0 4 18 24 40 45 22 21
40 41 40 45 0 4 18 24 40 45 22 21 40 43 40 49 0 6 5 11 10 11 6 0 10 5 10 11
0 6 14 24 30 39 17 15 30 33 30 39 0 6 5 11 10 11 6 0 10 6 10 13 0 7 9 19 20
27 11 8 20 20 20 27 0 7 5 13 10 13 6 0 10 7 10 15 0 8 5 15 10 15 6 0 10 7
10 15 0 8 5 15 10 15 6 0 10 7 10 15 0 8 5 15 10 15 6 0 10 7 10 15 0 8 5 15
10 15 6 0 10 7 10 15 0 8 5 15 10 15 6 0 10 8 10 18 0 10 9 24 20 32 11 8 20
22 20 32 0 10 5 18 10 18 6 0 10 9 10 20 0 11 5 20 10 20 6 0 10 7 10 15 0 8
5 15 10 15 6 0 10 7 10 15 0 8 5 15 10 15 6 0 10 9 10 20 0 11 5 20 10 20 6 0
10 9 10 20 0 11 5 20 10 20 6 0 10 9 10 20 0 11 5 20 10 20 6 0 10 9 10 20 0
11 5 20 10 20 6 0 10 9 10 20 0 11 5 20 10 20 6 0 10 14 10 30 0 17 5 30 10
30 6 0 10 9 10 20 0 11 5 20 10 20 6 0 10 9 10 20 0 11 5 20 10 20 6 0 10 14
10 30 0 17 5 30 10 30 6 0 10 14 10 30 0 17 5 30 10 30 6 0 10 9 10 20 0 11 5
20 10 20 6 0 10 14 10 30 0 17 5 30 10 30 6 0 10 18 10 40 0 22 5 40 10 40 6
0 10 14 10 30 0 17 5 30 10 30 6 0 10 18 10 40 0 22 5 40 10 40 6 0 10 18 10
40 0 22 5 40 10 40 6 0 10 23 10 50 0 28 5 50 10 50 6 0 10 30 10 70 0 40 4
70 10 70 6 0 10 37 10 90 0 53 4 90 10 90 6 0 10 83 10 230 0 147 -4 230 -10
230 -6 0 -10 40 -10 100 0 60 -4 100 -10 100 -6 0 -10 27 -10 60 0 33 -4 60
-10 60 -5 0 -10 23 -10 50 0 28 -4 50 -10 50 -5 0 -10 18 -10 40 0 22 -4 40
-10 40 -5 0 -10 -22 -10 -50 0 -27 5 -50 10 -50 6 0 10 -77 10 -210 0 -133 -4
-210 -10 -210 -6 0 -10 -37 -10 -90 0 -53 -4 -90 -10 -90 -6 0 -10 -30 -10
-70 0 -40 -4 -70 -10 -70 -5 0 -10 -22 -10 -50 0 -27 -4 -50 -10 -50 -5 0 -10
-18 -10 -40 0 -22 -4 -40 -10 -40 -5 0 -10 -18 -10 -40 0 -22 -4 -40 -10 -40
-5 0 -10 -13 -10 -30 0 -16 -4 -30 -10 -30 -5 0 -10 -13 -10 -30 0 -16 -4 -30
-10 -30 -5 0 -10 -13 -10 -30 0 -16 -4 -30 -10 -30 -5 0 -10 -13 -10 -30 0
-16 -4 -30 -10 -30 -5 0 -10 -9 -10 -20 0 -11 -4 -20 -10 -20 -5 0 -10 -13
-10 -30 0 -16 -4 -30 -10 -30 -5 0 -10 -9 -10 -20 0 -11 -4 -20 -10 -20 -5 0
-10 -9 -10 -20 0 -11 -4 -20 -10 -20 -5 0 -10 -9 -10 -20 0 -11 -4 -20 -10
-20 -5 0 -10 -9 -10 -20 0 -11 -4 -20 -10 -20 -5 0 -10 -9 -10 -20 0 -11 -4
-20 -10 -20 -5 0 -10 -8 -10 -18 0 -10 -9 -24 -20 -32 -11 -8 -20 -21 -20 -30
0 -9 -9 -22 -20 -30 -11 -8 -20 -22 -20 -32 0 -10 -4 -18 -10 -18 -5 0 -10 -7
-10 -15 0 -8 -4 -15 -10 -15 -5 0 -10 -6 -10 -13 0 -7 -9 -19 -20 -27 -11 -8
-20 -21 -20 -28 0 -8 -13 -27 -30 -42 -16 -15 -30 -33 -30 -39 0 -6 -4 -11
-10 -11 -5 0 -10 -5 -10 -10 0 -13 -277 -290 -289 -290 -5 0 -28 -18 -51 -40
-23 -22 -45 -40 -50 -40 -4 0 -22 -13 -39 -29 -18 -17 -41 -33 -52 -36 -10 -4
-19 -10 -19 -14 0 -5 -13 -14 -30 -21 -16 -7 -30 -16 -30 -20 0 -4 -19 -15
-41 -26 -23 -10 -47 -24 -54 -30 -17 -18 -292 -154 -310 -154 -8 0 -15 -4 -15
-8 0 -4 -21 -14 -47 -21 -27 -8 -50 -17 -53 -21 -9 -11 -174 -62 -265 -81
-111 -24 -351 -49 -465 -49 -79 0 -315 22 -440 40 -150 22 -345 74 -490 130
-30 12 -66 25 -80 29 -34 11 -334 161 -340 171 -3 4 -25 17 -49 30 -25 12 -51
29 -59 36 -7 8 -17 14 -22 14 -5 0 -25 16 -44 35 -20 19 -40 35 -46 35 -6 0
-31 20 -56 45 -24 25 -49 45 -54 45 -13 0 -190 177 -190 190 0 5 -4 10 -10 10
-5 0 -10 5 -10 11 0 6 -18 28 -40 49 -22 21 -40 45 -40 52 0 7 -9 20 -20 28
-11 8 -20 20 -20 27 0 7 -4 13 -10 13 -5 0 -10 7 -10 15 0 8 -4 15 -10 15 -5
0 -10 8 -10 18 0 10 -9 24 -20 32 -11 8 -20 22 -20 32 0 10 -4 18 -10 18 -5 0
-10 7 -10 15 0 8 -4 15 -10 15 -5 0 -10 7 -10 15 0 8 -4 15 -10 15 -5 0 -10 9
-10 20 0 11 -4 20 -10 20 -5 0 -10 9 -10 20 0 11 -4 20 -10 20 -5 0 -10 9 -10
20 0 11 -4 20 -10 20 -5 0 -10 11 -10 25 0 14 -4 25 -10 25 -5 0 -10 11 -10
25 0 14 -4 25 -10 25 -5 0 -10 9 -10 20 0 11 -4 20 -10 20 -5 0 -10 14 -10 30
0 17 -4 30 -10 30 -5 0 -10 14 -10 30 0 17 -4 30 -10 30 -5 0 -10 9 -10 20 0
11 -4 20 -10 20 -5 0 -10 18 -10 40 0 22 -4 40 -10 40 -5 0 -10 14 -10 30 0
17 -4 30 -10 30 -5 0 -10 18 -10 40 0 22 -4 40 -10 40 -5 0 -10 23 -10 50 0
28 -4 50 -10 50 -6 0 -10 27 -10 60 0 33 -4 60 -10 60 -6 0 -10 103 -10 290 0
187 4 290 10 290 6 0 10 23 10 50 0 28 5 50 10 50 6 0 10 20 10 45 0 25 5 45
10 45 6 0 10 16 10 35 0 19 5 35 10 35 6 0 10 14 10 30 0 17 5 30 10 30 6 0
10 11 10 25 0 14 5 25 10 25 6 0 10 11 10 25 0 14 5 25 10 25 6 0 10 11 10 25
0 14 5 25 10 25 6 0 10 9 10 20 0 11 5 20 10 20 6 0 10 9 10 20 0 11 5 20 10
20 6 0 10 9 10 20 0 11 5 20 10 20 6 0 10 7 10 15 0 8 5 15 10 15 6 0 10 9 10
20 0 11 5 20 10 20 6 0 10 7 10 15 0 8 5 15 10 15 6 0 10 6 10 13 0 7 9 19 20
27 11 8 20 21 20 28 0 8 14 27 30 42 17 15 30 33 30 39 0 6 5 11 10 11 6 0 10
5 10 10 0 11 154 165 207 208 15 12 38 30 50 40 11 9 31 24 43 32 12 8 28 20
34 26 7 6 28 19 46 29 19 10 37 21 40 25 3 4 28 19 57 33 48 25 71 34 178 72
113 40 347 70 480 61 164 -10 373 -53 480 -97 94 -40 225 -103 225 -110 0 -4
14 -12 30 -19 17 -7 30 -16 30 -21 0 -4 9 -11 20 -14 11 -4 43 -29 71 -56 28
-27 55 -49 60 -49 5 0 9 -5 9 -11 0 -6 14 -24 30 -39 17 -15 30 -31 30 -35 0
-4 14 -20 30 -35 17 -15 30 -33 30 -39 0 -6 5 -11 10 -11 6 0 10 -6 10 -13 0
-7 9 -19 20 -27 11 -8 20 -22 20 -32 0 -10 5 -18 10 -18 6 0 10 -7 10 -15 0
-8 5 -15 10 -15 6 0 10 -7 10 -15 0 -8 5 -15 10 -15 6 0 10 -9 10 -20 0 -11 5
-20 10 -20 6 0 10 -9 10 -20 0 -11 5 -20 10 -20 6 0 10 -9 10 -20 0 -11 5 -20
10 -20 6 0 10 -11 10 -25 0 -14 5 -25 10 -25 6 0 10 -11 10 -25 0 -14 5 -25
10 -25 6 0 10 -13 10 -30 0 -16 5 -30 10 -30 6 0 10 -18 10 -40 0 -22 5 -40
10 -40 6 0 10 -20 10 -45 0 -25 5 -45 10 -45 6 0 10 -37 10 -90 0 -53 4 -90
10 -90 6 0 10 -28 10 -65 0 -37 -4 -65 -10 -65 -6 0 -10 -40 -10 -100 0 -60
-4 -100 -10 -100 -5 0 -10 -22 -10 -50 0 -27 -4 -50 -10 -50 -5 0 -10 -13 -10
-30 0 -16 -4 -30 -10 -30 -5 0 -10 -13 -10 -30 0 -16 -4 -30 -10 -30 -5 0 -10
-13 -10 -30 0 -16 -4 -30 -10 -30 -5 0 -10 -13 -10 -30 0 -16 -4 -30 -10 -30
-5 0 -10 -9 -10 -20 0 -11 -4 -20 -10 -20 -5 0 -10 -9 -10 -20 0 -11 -4 -20
-10 -20 -5 0 -10 -8 -10 -18 0 -10 -9 -24 -20 -32 -11 -8 -20 -21 -20 -30 0
-9 -9 -22 -20 -30 -11 -8 -20 -20 -20 -27 0 -17 -186 -203 -203 -203 -7 0 -19
-9 -27 -20 -8 -11 -21 -20 -30 -20 -9 0 -22 -9 -30 -20 -8 -11 -22 -20 -32
-20 -10 0 -18 -4 -18 -10 0 -5 -9 -10 -20 -10 -11 0 -20 -4 -20 -10 0 -5 -9
-10 -20 -10 -11 0 -20 -4 -20 -10 0 -5 -9 -10 -20 -10 -11 0 -20 -4 -20 -10 0
-5 -13 -10 -30 -10 -16 0 -30 -4 -30 -10 0 -5 -13 -10 -30 -10 -16 0 -30 -4
-30 -9 0 -9 -24 -13 -195 -32 -117 -14 -131 -14 -207 -4 -41 6 -58 4 -58 -4 0
-6 9 -11 20 -11 11 0 20 -4 20 -10 0 -5 9 -10 20 -10 11 0 20 -4 20 -10 0 -5
14 -10 30 -10 17 0 30 -4 30 -10 0 -5 14 -10 30 -10 17 0 30 -4 30 -10 0 -5
14 -10 30 -10 17 0 30 -4 30 -9 0 -5 15 -11 33 -14 17 -3 52 -11 77 -17 62
-16 132 -29 215 -42 94 -14 404 -13 485 1 36 6 84 14 108 17 23 3 42 10 42 15
0 5 14 9 30 9 17 0 30 5 30 10 0 6 14 10 30 10 17 0 30 5 30 10 0 6 9 10 20
10 11 0 20 5 20 10 0 6 7 10 15 10 20 0 105 42 105 52 0 4 8 8 18 8 10 0 24 9
32 20 8 11 20 20 28 20 7 0 24 11 38 25 14 14 29 25 34 25 13 0 210 197 210
211 0 6 14 24 30 39 17 15 30 34 30 42 0 7 9 20 20 28 11 8 20 21 20 30 0 9 9
22 20 30 11 8 20 22 20 32 0 10 5 18 10 18 6 0 10 9 10 20 0 11 5 20 10 20 6
0 10 9 10 20 0 11 5 20 10 20 6 0 10 9 10 20 0 11 5 20 10 20 6 0 10 9 10 20
0 11 5 20 10 20 6 0 10 9 10 20 0 11 5 20 10 20 6 0 10 9 10 20 0 11 5 20 10
20 6 0 10 14 10 30 0 17 5 30 10 30 6 0 10 9 10 20 0 11 5 20 10 20 6 0 10 14
10 30 0 17 5 30 10 30 6 0 10 14 10 30 0 17 5 30 10 30 6 0 10 18 10 40 0 22
5 40 10 40 6 0 10 18 10 40 0 22 5 40 10 40 6 0 10 20 10 45 0 25 5 45 10 45
6 0 10 28 10 65 0 37 4 65 10 65 6 0 10 97 10 270 0 173 -4 270 -10 270 -6 0
-10 30 -10 70 0 40 -4 70 -10 70 -5 0 -10 18 -10 40 0 22 -4 40 -10 40 -5 0
-10 18 -10 40 0 22 -4 40 -10 40 -5 0 -10 16 -10 35 0 19 -4 35 -10 35 -5 0
-10 14 -10 30 0 17 -4 30 -10 30 -5 0 -10 14 -10 30 0 17 -4 30 -10 30 -5 0
-10 11 -10 25 0 14 -4 25 -10 25 -5 0 -10 11 -10 25 0 14 -4 25 -10 25 -5 0
-10 9 -10 20 0 11 -4 20 -10 20 -5 0 -10 9 -10 20 0 11 -4 20 -10 20 -5 0 -10
9 -10 20 0 11 -4 20 -10 20 -5 0 -10 9 -10 20 0 11 -4 20 -10 20 -5 0 -10 9
-10 20 0 11 -4 20 -10 20 -5 0 -10 9 -10 20 0 11 -4 20 -10 20 -5 0 -10 7 -10
15 0 8 -4 15 -10 15 -5 0 -10 7 -10 15 0 8 -4 15 -10 15 -5 0 -10 7 -10 15 0
8 -4 15 -10 15 -5 0 -10 9 -10 20 0 11 -4 20 -10 20 -5 0 -10 6 -10 13 0 7 -9
19 -20 27 -11 8 -20 20 -20 27 0 7 -4 13 -10 13 -5 0 -10 6 -10 13 0 7 -9 19
-20 27 -11 8 -20 20 -20 27 0 7 -4 13 -10 13 -5 0 -10 5 -10 11 0 5 -27 37
-60 69 -33 32 -60 63 -60 67 -1 4 -19 24 -41 43 -22 19 -71 65 -110 103 -38
37 -74 67 -79 67 -5 0 -25 16 -44 35 -20 19 -40 35 -46 35 -6 0 -22 11 -35 24
-13 14 -34 27 -45 31 -11 3 -20 10 -20 14 0 5 -13 14 -30 21 -16 7 -30 16 -30
21 0 5 -9 9 -20 9 -11 0 -20 4 -20 9 0 5 -13 14 -30 21 -16 7 -30 16 -30 21 0
5 -9 9 -20 9 -11 0 -20 5 -20 10 0 6 -9 10 -20 10 -11 0 -20 5 -20 10 0 6 -9
10 -20 10 -11 0 -20 5 -20 10 0 6 -9 10 -20 10 -11 0 -20 3 -20 8 0 4 -16 13
-35 20 -19 6 -51 18 -70 24 -19 7 -35 16 -35 20 0 5 -13 8 -30 8 -16 0 -30 4
-30 10 0 5 -13 7 -30 4 -19 -4 -30 -2 -30 5 0 6 -17 11 -40 11 -22 0 -40 5
-40 10 0 6 -13 10 -30 10 -16 0 -30 5 -30 10 0 6 -22 10 -50 10 -27 0 -50 4
-50 9 0 5 -22 11 -50 15 -27 4 -50 11 -50 15 0 5 -21 12 -47 16 -64 9 -687 18
-695 10z"/>
</g>
</svg>
